<?xml version="1.0" encoding="UTF-8" standalone="no"?>
<svg width="100%" height="100%" viewBox="0 0 150 150" version="1.1" xmlns="http://www.w3.org/2000/svg" xmlns:xlink="http://www.w3.org/1999/xlink" xmlns:sketch="http://www.bohemiancoding.com/sketch/ns">
    <title>build</title>
    <description>Created with Sketch (http://www.bohemiancoding.com/sketch)</description>
    <defs></defs>
    <g id="Page 1" fill="#D8D8D8" fill-rule="evenodd">
        <g id="Build">
            <path d="M75,150 C116.421358,150 150,116.421358 150,75 C150,33.5786417 116.421358,0 75,0 C33.5786417,0 0,33.5786417 0,75 C0,116.421358 33.5786417,150 75,150 Z M75,150" id="Background" fill="#568C7D"></path>
            <path d="M41.0847378,104.153155 C36.3943447,98.8094921 37.7432272,91.0751775 37.8718707,84.0732747 C38.0005137,77.0713719 38.1365174,76.6482113 37.7966842,69.2952961 C37.4568508,61.9423809 34.2988307,51.1140519 37.8718706,50.0188612 C41.4449106,48.9236705 46.2397412,54.7063482 47.3263369,59.0535207 C48.4129326,63.4006932 48.8782043,65.8109064 50.1843735,71.4202092 C51.4905428,77.029512 54.5036336,78.9480752 57.2597803,78.3151988 C60.015927,77.6823222 65.1023968,62.4834083 68.4013141,53.8977949 C71.700231,45.3121813 74.7003461,38.4511878 76.1261081,36.0591613 C77.5518702,33.6671348 79.8146066,31.6931826 82.4865403,32.7226775 C85.1584739,33.7521725 85.7952816,34.9902646 85.3170329,38.1031763 C84.8387843,41.216088 83.3209338,44.7057507 81.2905802,50.0188612 C79.2602266,55.3319717 73.9514238,71.7268212 75.7234228,72.9284583 C76.7980208,73.6571701 84.0696474,55.1212632 86.6983218,49.1945351 C89.3269962,43.267807 91.1618676,39.4754962 92.498399,37.0836763 C93.8349302,34.6918563 96.1685028,33.3102332 98.5972621,34.0767238 C101.026021,34.8432144 102.188718,36.756124 101.731175,39.9522134 C101.2351,43.4174557 98.8281877,49.7312511 97.0031001,54.0285691 C95.1780124,58.3258871 87.0099498,75.8813232 88.3764877,76.9129089 C89.7430255,77.9444947 96.0962374,64.7521394 97.9910987,60.3078494 C99.8859599,55.8635594 102.283541,50.5899208 103.994503,47.5908272 C105.705465,44.5917335 107.390603,43.7867572 109.974997,44.9027072 C112.559391,46.0186574 112.876855,48.4333834 111.993951,51.6592815 C111.111047,54.8851796 110.354531,55.9357242 108.317832,61.2423912 C106.281134,66.5490582 95.0662488,85.8649188 96.2489755,86.8033959 C97.4317022,87.7418731 101.306211,81.3780524 103.771129,77.2632427 C106.236048,73.1484331 108.032787,69.3111686 109.539705,66.7026349 C111.046623,64.0941013 113.075292,61.4923382 115.734027,62.5807236 C118.392762,63.6691092 119.092662,67.1846102 117.9859,69.9644624 C116.879138,72.7443145 103.584716,100.326168 99.0182444,106.854158 C94.8440812,112.821324 87.6548191,122.394258 72.7489264,119.451263 C57.8430334,116.508269 45.7751312,109.496818 41.0847378,104.153155 Z M72.89412,99.6352931 C72.89412,99.6352931 74.0753747,102.861579 75.5962817,106.572938 C77.1171886,110.284297 78.879785,114.032969 83.6530659,110.690679 C88.4263466,107.34839 85.506593,104.409973 82.539237,101.711428 C79.571881,99.0128834 76.9441772,96.7994125 76.9441772,96.7994125 C76.9441772,96.7994125 74.8623434,95.3655245 73.5605393,96.2770576 C72.2587355,97.1885911 72.89412,99.6352931 72.89412,99.6352931 Z M63.4248848,102.086873 C63.2980802,103.900264 64.6721256,106.298451 66.5647078,106.430793 C68.4572901,106.563135 70.1517265,104.379518 70.2785311,102.566127 C70.4053357,100.752736 68.9164903,99.9962666 67.023908,99.8639244 C65.1313258,99.7315821 63.5516895,100.273483 63.4248848,102.086873 Z M80.9997164,85.9605917 C78.4479205,86.2739128 75.4892618,88.8287165 75.8162658,91.4919502 C76.1432698,94.1551839 79.6321067,95.9183347 82.1839025,95.6050136 C84.7356984,95.2916925 85.3841397,93.0205478 85.0571357,90.3573141 C84.7301317,87.6940804 83.5515123,85.6472706 80.9997164,85.9605917 Z M62.2552985,92.7249687 C57.6498548,94.8725224 57.9358558,95.8686637 58.4695269,97.013125 C59.003198,98.1575863 59.5824486,99.0169831 64.1878923,96.8694294 C68.7933361,94.7218757 73.9359234,91.1943421 73.4022524,90.0498808 C72.8685813,88.9054195 66.8607423,90.577415 62.2552985,92.7249687 Z M66.7905318,83.5940975 C63.5603349,85.9409729 63.9302735,86.6664159 64.5134764,87.4691258 C65.0966793,88.2718357 65.6722992,88.8478425 68.9024961,86.500967 C72.132693,84.1540916 75.570294,80.6623092 74.9870911,79.8595993 C74.4038882,79.0568894 70.0207287,81.2472221 66.7905318,83.5940975 Z M66.7905318,83.5940975" id="Hand" fill="#E0E0E0"></path>
        </g>
    </g>
</svg>