<?xml version="1.0" encoding="UTF-8" standalone="no"?>
<svg width="100%" height="100%" viewBox="0 0 150 150" version="1.1" xmlns="http://www.w3.org/2000/svg" xmlns:xlink="http://www.w3.org/1999/xlink" xmlns:sketch="http://www.bohemiancoding.com/sketch/ns">
    <title>claim</title>
    <description>Created with Sketch (http://www.bohemiancoding.com/sketch)</description>
    <defs></defs>
    <g id="Page 1" fill="#D8D8D8" fill-rule="evenodd">
        <g id="Claim">
            <path d="M75,150 C116.421358,150 150,116.421358 150,75 C150,33.5786417 116.421358,0 75,0 C33.5786417,0 0,33.5786417 0,75 C0,116.421358 33.5786417,150 75,150 Z M75,150" id="Background" fill="#568C7D"></path>
            <path d="M60.6456373,28.7282216 L53.2261363,42.6274169 L66.9309717,35.0775776 L67.3471967,50.9096255 L75.4999993,37.4100876 L83.6527881,50.9096297 L84.0690209,35.077582 L97.7738632,42.6274174 L90.3543621,28.7282213 C100.261498,34.0543656 107,44.5421214 107,56.6091954 C107,64.1896741 104.34079,71.1469075 99.9073823,76.5928154 C95.2962016,83.3532212 89.3838622,92.7087581 85.1901054,101.798674 C77.3151054,118.86764 75.5,135 75.5,135 C75.5,135 73.6848946,118.86764 65.8098946,101.798674 C61.6161378,92.7087581 55.7037984,83.3532212 51.0926177,76.5928154 C46.6592101,71.1469075 44,64.1896741 44,56.6091954 C44,44.5421214 50.7385016,34.0543656 60.6456373,28.7282216 Z M60.6456373,28.7282216" id="Pin" fill="#E0E0E0"></path>
        </g>
    </g>
</svg>