<?xml version="1.0" encoding="UTF-8" standalone="no"?>
<svg width="100%" height="100%" viewBox="0 0 150 150" version="1.1" xmlns="http://www.w3.org/2000/svg" xmlns:xlink="http://www.w3.org/1999/xlink" xmlns:sketch="http://www.bohemiancoding.com/sketch/ns">
    <title>learn</title>
    <description>Created with Sketch (http://www.bohemiancoding.com/sketch)</description>
    <defs></defs>
    <g id="Page 1" fill="#D8D8D8" fill-rule="evenodd">
        <g id="Group">
            <path d="M75,150 C116.421358,150 150,116.421358 150,75 C150,33.5786417 116.421358,0 75,0 C33.5786417,0 0,33.5786417 0,75 C0,116.421358 33.5786417,150 75,150 Z M75,150" id="Background" fill="#568C7D"></path>
            <path d="M60,117.5 C60,115.570937 61.5673498,114 63.5007737,114 L88.4992263,114 C90.4349113,114 92,115.567003 92,117.5 C92,119.429063 90.4326502,121 88.4992263,121 L63.5007737,121 C61.5650887,121 60,119.432997 60,117.5 Z M64,127.5 C64,125.570937 65.5681892,124 67.5026485,124 L84.4973515,124 C86.425293,124 88,125.567003 88,127.5 C88,129.429063 86.4318108,131 84.4973515,131 L67.5026485,131 C65.574707,131 64,129.432997 64,127.5 Z M58,107.5 C58,105.570937 59.5674262,104 61.5009443,104 L90.4990557,104 C92.4299765,104 94,105.567003 94,107.5 C94,109.429063 92.4325738,111 90.4990557,111 L61.5009443,111 C59.5700235,111 58,109.432997 58,107.5 Z M55.9070138,84.4571169 C45.7420236,78.1550367 39,67.0932898 39,54.5 C39,34.8938904 55.3416056,19 75.5,19 C95.6583944,19 112,34.8938904 112,54.5 C112,67.1042212 105.246267,78.1742395 95.0665078,84.4735174 C94.7652181,85.2895445 94.5191447,86.6684909 94.5191448,88.9960826 L94.5191448,93.0057386 C94.5191448,97.4187552 90.9367361,101 86.517611,101 L78,101 L78,74.7826955 L81.6819939,74.0003542 C81.6819939,74.0003542 85.0248494,73.4284035 88.1262804,70.6358625 C91.2277112,67.8433212 92.1459525,64.5785636 92.1459525,64.5785636 L94.5324551,57.4667368 L87.2101302,59.0967776 C87.2101302,59.0967776 83.8672748,59.6687284 80.7658437,62.4612694 C77.6644127,65.2538104 76.7461717,68.5185683 76.7461717,68.5185683 L75.906461,71.1035963 L73.9123628,64.3584159 C73.9123628,64.3584159 72.651898,59.3344367 67.9856828,55.2781578 C63.3194674,51.2218792 58.1689587,50.6728835 58.1689587,50.6728835 L46.9058084,48.8788194 L50.2499403,59.7826721 C50.2499403,59.7826721 51.5104052,64.8066513 56.1766203,68.8629302 C60.8428355,72.9192091 65.9933444,73.4682045 65.9933444,73.4682045 L74,74.6604387 L74,101 L64.4620436,101 C60.0409738,101 56.4605097,97.4208473 56.4605097,93.0057386 L56.4605098,88.9960825 C56.4605098,86.600375 56.209114,85.2340865 55.9070138,84.4571169 Z M55.9070138,84.4571169" id="Bulb" fill="#E0E0E0"></path>
        </g>
    </g>
</svg>