<?xml version="1.0" encoding="UTF-8" standalone="no"?>
<svg width="100%" height="100%" viewBox="0 0 323 372" version="1.1" xmlns="http://www.w3.org/2000/svg" xmlns:xlink="http://www.w3.org/1999/xlink" xmlns:sketch="http://www.bohemiancoding.com/sketch/ns">
    <title>logo</title>
    <description>Created with Sketch (http://www.bohemiancoding.com/sketch)</description>
    <defs></defs>
    <g id="Page 1" fill="#D8D8D8" fill-rule="evenodd">
        <path d="M154.87453,408.473332 C150.740823,408.473332 147.37453,405.116895 147.37453,400.97652 L147.37453,125.970144 C147.37453,125.457578 147.426009,124.95701 147.52408,124.473332 L122.372355,124.473332 C115.75159,124.473332 110.37453,119.10291 110.37453,112.478158 L110.37453,1.46850557 C110.37453,0.863544918 110.419392,0.268975813 110.505973,-0.312038526 L110.505973,-8.52933208 C110.505973,-10.7384198 112.296834,-12.526668 114.505973,-12.526668 C116.710617,-12.526668 118.505973,-10.7369998 118.505973,-8.52933208 L118.505973,106.24877 C119.366264,112.034937 124.345906,116.473332 130.38298,116.473332 L137.549787,116.473332 L137.549787,-8.52301278 C137.549787,-10.7454562 139.340648,-12.526668 141.549787,-12.526668 C143.754431,-12.526668 145.549787,-10.7341705 145.549787,-8.52301278 L145.549787,113.075392 L164.37453,113.075392 L164.37453,-8.52301278 C164.37453,-10.7454562 166.165391,-12.526668 168.37453,-12.526668 C170.579174,-12.526668 172.37453,-10.7341705 172.37453,-8.52301278 L172.37453,116.473332 L181.366081,116.473332 C186.735421,116.473332 191.281697,112.948818 192.818264,108.087209 L192.818264,-8.10290852 C192.818264,-10.3119963 194.609125,-12.1002445 196.818264,-12.1002445 C199.022907,-12.1002445 200.818264,-10.3105762 200.818264,-8.10290852 L200.818264,113.90242 C200.818264,115.045621 200.338661,116.076119 199.569681,116.804407 C197.833093,121.289235 193.476475,124.473332 188.376706,124.473332 L162.224681,124.473332 C162.322938,124.957015 162.37453,125.457572 162.37453,125.970144 L162.37453,400.97652 C162.37453,405.116207 159.016666,408.473332 154.87453,408.473332 Z M154.87453,408.473332" id="Pitchfork" fill="#999999" transform="translate(154.374530, 195.473332) rotate(-35.000000) translate(-154.374530, -195.473332)"></path>
        <path d="M190.384197,156.631849 L203.232629,390.664023 C203.773611,400.517934 196.225291,408.483318 186.374526,408.483318 C176.521595,408.483318 168.976131,400.505348 169.516422,390.664023 L182.364854,156.631842 C173.69549,148.941713 156.160295,123.692946 153.279302,92.6966456 L158.711412,-10.9541824 L162.229414,-10.9541824 L163.576135,83.1792867 C163.610817,85.6034843 165.559375,87.5804062 167.953555,87.6797947 C170.354675,87.5804941 172.321624,85.6069324 172.386835,83.1792867 L174.915451,-10.9541824 L178.748919,-10.9541824 L181.532589,87.5398638 C181.611132,90.3189324 183.73,92.6171118 186.414755,92.9922135 C189.097531,92.6172793 191.21863,90.3208765 191.297228,87.5398638 L194.080898,-10.9541824 L197.914366,-10.9541824 L200.442981,83.1792867 C200.5081,85.6034843 202.481479,87.5804062 204.876908,87.6797947 C207.276781,87.5804941 209.218951,85.6069324 209.253682,83.1792867 L210.600403,-10.9541824 L213.985241,-10.9541824 L219.436005,93.0526018 C216.454544,123.886139 199.020358,148.971173 190.384197,156.631849 Z M190.384197,156.631849" id="Fork" fill="#474747" transform="translate(186.374530, 185.483318) rotate(-325.000000) translate(-186.374530, -185.483318)"></path>
    </g>
</svg>