<?xml version="1.0" encoding="UTF-8" standalone="no"?>
<svg width="100%" height="100%" viewBox="0 0 150 150" version="1.1" xmlns="http://www.w3.org/2000/svg" xmlns:xlink="http://www.w3.org/1999/xlink" xmlns:sketch="http://www.bohemiancoding.com/sketch/ns">
    <title>share</title>
    <description>Created with Sketch (http://www.bohemiancoding.com/sketch)</description>
    <defs></defs>
    <g id="Page 1" fill="#D8D8D8" fill-rule="evenodd">
        <g id="Share">
            <path d="M75,150 C116.421358,150 150,116.421358 150,75 C150,33.5786417 116.421358,0 75,0 C33.5786417,0 0,33.5786417 0,75 C0,116.421358 33.5786417,150 75,150 Z M75,150" id="Background" fill="#568C7D"></path>
            <path d="M71.3950445,115 C55.13897,115 29,93.5 29,93.5 C29,93.5 55.13897,72 71.3950445,72 C84.9329813,72 92.3298129,78.6759631 94.4249128,87.7666667 L104.473214,87.7666667 L104.473214,90.6333333 L94.9029389,90.6333333 C94.9533735,91.106385 94.9909892,91.5843537 95.0158827,92.0666667 L108,92.0666667 L108,94.9333333 L95.0158827,94.9333333 C94.9909892,95.4156463 94.9533735,95.893615 94.9029389,96.3666667 L104.473214,96.3666667 L104.473214,99.2333333 L94.4249128,99.2333333 C92.3298129,108.324037 84.9329813,115 71.3950445,115 Z M76.4342784,65 C59.5550149,65 53.2329489,61.4770006 51.2651193,56.04 L34,56.04 L34,53.8 L50.7006653,53.8 C50.6147769,53.2540428 50.559065,52.6936446 50.5286363,52.12 L30,52.12 L30,49.88 L50.5286363,49.88 C50.559065,49.3063554 50.6147769,48.7459572 50.7006653,48.2 L34,48.2 L34,45.96 L51.2651193,45.96 C53.2329489,40.5229994 59.5550149,37 76.4342784,37 C98.0908163,37 131,51 131,51 C131,51 98.0908163,65 76.4342784,65 Z M76.4342784,65" id="Pointy veggies" fill="#E0E0E0"></path>
        </g>
    </g>
</svg>