<?xml version="1.0" encoding="UTF-8" standalone="no"?>
<svg width="100%" height="100%" viewBox="0 0 150 150" version="1.1" xmlns="http://www.w3.org/2000/svg" xmlns:xlink="http://www.w3.org/1999/xlink" xmlns:sketch="http://www.bohemiancoding.com/sketch/ns">
    <title>track</title>
    <description>Created with Sketch (http://www.bohemiancoding.com/sketch)</description>
    <defs></defs>
    <g id="Page 1" fill="#D8D8D8" fill-rule="evenodd">
        <g id="Track">
            <path d="M75,150 C116.421358,150 150,116.421358 150,75 C150,33.5786417 116.421358,0 75,0 C33.5786417,0 0,33.5786417 0,75 C0,116.421358 33.5786417,150 75,150 Z M75,150" id="Background" fill="#568C7D"></path>
            <path d="M88.256292,74.2124373 L92.4449256,74.2124373 C95.2178778,74.2124373 97.4530017,76.4465704 97.4530017,79.2025131 L97.4530017,106.509924 C97.4530017,109.251468 95.2108097,111.5 92.4449256,111.5 L88.256292,111.5 C85.4833398,111.5 83.2482159,109.265867 83.2482159,106.509924 L83.2482159,79.2025131 C83.2482159,76.4609698 85.490408,74.2124373 88.256292,74.2124373 Z M34.9883454,100.846411 L39.176979,100.846411 C41.9499311,100.846411 44.185055,103.084654 44.185055,105.845666 L44.185055,106.500744 C44.185055,109.266659 41.942863,111.5 39.176979,111.5 L34.9883454,111.5 C32.2153932,111.5 29.9802693,109.261757 29.9802693,106.500744 L29.9802693,105.845666 C29.9802693,103.079752 32.2224613,100.846411 34.9883454,100.846411 Z M106.012274,43.1394684 L110.200908,43.1394684 C112.97386,43.1394684 115.208984,45.3776045 115.208984,48.1384853 L115.208984,50.0557344 C115.5314,49.8962547 115.882143,49.7357344 116.26323,49.5739723 C121.453641,47.3707738 130.307634,45.7715158 131.265546,48.028216 C132.223459,50.2849161 124.922548,55.5430077 119.732138,57.7462062 C117.655768,58.627573 116.231688,58.8865444 115.208984,58.7355691 L115.208984,106.500983 C115.208984,109.264388 112.966792,111.5 110.200908,111.5 L106.012274,111.5 C103.239322,111.5 101.004198,109.261864 101.004198,106.500983 L101.004198,65.1024391 C100.491945,65.1187587 99.8689113,65.060696 99.1075612,64.9127046 C95.4977406,64.2110265 90.1454943,61.7534327 90.4729441,60.0688498 C90.8003939,58.3842669 96.683541,58.1106123 100.293362,58.8122904 C100.548045,58.8617957 100.784607,58.9148334 101.004198,58.9712435 L101.004198,48.1384853 C101.004198,45.3750802 103.24639,43.1394684 106.012274,43.1394684 Z M70.5003098,88.4172231 L74.6889434,88.4172231 C77.4618956,88.4172231 79.6970195,90.6596581 79.6970195,93.4258419 L79.6970195,106.491381 C79.6970195,109.265753 77.4548275,111.5 74.6889434,111.5 L70.5003098,111.5 C67.7273576,111.5 65.4922337,109.257565 65.4922337,106.491381 L65.4922337,93.4258419 C65.4922337,90.6514702 67.7344258,88.4172231 70.5003098,88.4172231 Z M52.7443276,96.4074151 L56.9329612,96.4074151 C59.7059134,96.4074151 61.9410373,98.6480726 61.9410373,101.412064 L61.9410373,106.495351 C61.9410373,109.256785 59.6988452,111.5 56.9329612,111.5 L52.7443276,111.5 C49.9713754,111.5 47.7362515,109.259343 47.7362515,106.495351 L47.7362515,101.412064 C47.7362515,98.6506306 49.9784435,96.4074151 52.7443276,96.4074151 Z M52.7443276,96.4074151" id="Rectangle 19" fill="#E0E0E0"></path>
        </g>
    </g>
</svg>